<?xml version="1.0" encoding="UTF-8"?>
<svg id="Layer_2" data-name="Layer 2" xmlns="http://www.w3.org/2000/svg" viewBox="0 0 462.67 89.6">
  <defs>
    <style>
      .cls-1 {
        fill: #373535;
      }

      .cls-1, .cls-2, .cls-3 {
        fill-rule: evenodd;
      }

      .cls-2 {
        fill: #fff;
      }

      .cls-3, .cls-4 {
        fill: #84bf4d;
      }
    </style>
  </defs>
  <g id="svg2">
    <g>
      <g id="g12">
        <path id="path14" class="cls-1" d="M186.63,87.65h276.04V0H186.63l-11.67,40.99,11.67,46.67Z"/>
      </g>
      <g id="g18">
        <g id="g24">
          <path id="path26" class="cls-4" d="M21.79,0v63.32c0,4.17-3.67,9.67-9.67,9.67s-12.13-2.17-12.13-2.17v17s8.96,1.67,14.29,1.67c0,0,27.67,3.17,27.67-24.33V0h-20.17Z"/>
        </g>
        <g id="g28">
          <path id="path30" class="cls-4" d="M77.63,53.32h18.83l-9.5-31-9.33,31ZM101.46,0l27.17,87.65h-22l-5.83-18.5-28,.33-5.67,18.17h-17.67L77.29,0h24.17Z"/>
        </g>
        <g id="g32">
          <path id="path34" class="cls-4" d="M149.29,87.65h-19.33l27-46.5L132.46,0h24.5l14,26.82L185.79,0h19.17l-24,40.82,26.83,46.83h-24.5l-16.67-32-17.33,32Z"/>
        </g>
        <g id="g36">
          <path id="path38" class="cls-2" d="M259.08,46.48c0-.94-.5-1.81-1.31-2.28l-21.69-12.48c-.37-.22-.78-.33-1.19-.34h-.23c-.41.02-.83.13-1.2.34l-21.69,12.48c-.81.47-1.31,1.33-1.31,2.28l.05,33.6c0,.47.24.9.65,1.13.4.24.9.24,1.3,0l12.89-7.38c.82-.48,1.31-1.34,1.31-2.27v-15.7c0-.94.5-1.8,1.31-2.27l5.49-3.16c.41-.24.86-.35,1.31-.35s.91.12,1.3.35l5.49,3.16c.81.47,1.31,1.33,1.31,2.27v15.7c0,.93.5,1.79,1.31,2.27l12.88,7.38c.4.24.91.24,1.31,0,.4-.23.65-.66.65-1.13l.04-33.6Z"/>
        </g>
        <g id="g40">
          <path id="path42" class="cls-2" d="M372.86,63.98c0,.23-.13.45-.33.57l-7.45,4.29c-.2.12-.45.12-.65,0l-7.45-4.29c-.2-.12-.33-.33-.33-.57v-8.6c0-.23.13-.45.33-.57l7.45-4.3c.2-.12.45-.12.66,0l7.45,4.3c.2.12.33.33.33.57v8.6ZM374.88.29c-.41-.23-.9-.22-1.3.01-.4.24-.65.67-.65,1.13v33.28c0,.33-.17.63-.46.79-.28.16-.63.16-.92,0l-5.43-3.13c-.81-.47-1.81-.47-2.62,0l-21.69,12.52c-.81.47-1.31,1.33-1.31,2.27v25.05c0,.93.5,1.8,1.31,2.27l21.69,12.53c.81.47,1.81.47,2.62,0l21.7-12.53c.81-.47,1.31-1.33,1.31-2.27V9.78c0-.95-.51-1.83-1.34-2.29l-12.91-7.2Z"/>
        </g>
        <g id="g44">
          <path id="path46" class="cls-2" d="M452.49,55.15c.81-.47,1.3-1.33,1.3-2.27v-6.07c0-.93-.5-1.8-1.31-2.27l-21.55-12.51c-.81-.47-1.81-.47-2.63,0l-21.69,12.52c-.81.47-1.31,1.33-1.31,2.27v25.04c0,.94.51,1.81,1.32,2.28l21.55,12.28c.79.45,1.77.46,2.57.01l13.04-7.25c.41-.23.67-.66.67-1.14s-.25-.91-.66-1.15l-21.82-12.53c-.41-.23-.66-.67-.66-1.14v-7.85c0-.47.25-.9.65-1.13l6.79-3.92c.4-.23.9-.23,1.31,0l6.8,3.92c.41.23.65.67.65,1.13v6.17c0,.47.25.9.66,1.14.41.23.91.23,1.31,0l12.99-7.55Z"/>
        </g>
        <g id="g48">
          <path id="path50" class="cls-3" d="M298.53,31.9c.81-.47,1.81-.47,2.62,0l21.69,12.52c.81.47,1.31,1.33,1.31,2.27v25.05c0,.94-.5,1.8-1.31,2.27l-21.69,12.53c-.81.47-1.81.47-2.62,0l-21.69-12.53c-.81-.47-1.31-1.33-1.31-2.27v-25.05c0-.94.5-1.8,1.31-2.27l21.69-12.52Z"/>
        </g>
        <g id="g52">
          <path id="path54" class="cls-3" d="M429.3,53.98c.16-.09.35-.09.5,0l4.16,2.4c.16.09.25.26.25.44v4.81c0,.18-.1.35-.25.43l-4.16,2.4c-.16.09-.35.09-.5,0l-4.16-2.4c-.15-.09-.25-.25-.25-.43v-4.81c0-.18.1-.35.25-.44l4.16-2.4Z"/>
        </g>
      </g>
    </g>
  </g>
</svg>